#Comment line ignore any data following # character 
#Hierarchical Translation and Rotation (.htr) file 
[Header]	
#Header keywords are followed by a single value 
FileType HTR		#Single word string
DataType HTRS		#Translation followed by rotation and scale data
FileVersion 1		#integer
NumSegments 84		#integer
NumFrames 2		#integer
DataFrameRate 30		#integer, data frame rate in this file
EulerRotationOrder ZYX
CalibrationUnits mm
RotationUnits Degrees
GlobalAxisofGravity Y
BoneLengthAxis Y
ScaleFactor 1.00
[SegmentNames&Hierarchy]
#CHILD	PARENT
MASTER GLOBAL
root MASTER
chest root
L_mid_tent01 root
R_mid_tent01 root
spine01 root
Bip01_Neck chest
L_humerus chest
R_humerus chest
weapon_bone chest
Bip01_Head Bip01_Neck
eye_left_bone Bip01_Head
eye_right_bone Bip01_Head
L_forearm L_humerus
L_front_hand L_forearm
L_weapon_bone L_forearm
L_front_hand01_01 L_front_hand
L_front_hand02_01 L_front_hand
L_front_hand03_01 L_front_hand
L_front_hand01_02 L_front_hand01_01
L_front_hand02_02 L_front_hand02_01
L_front_hand03_02 L_front_hand03_01
R_forearm R_humerus
R_front_hand R_forearm
R_weapon_bone R_forearm
R_front_hand01_01 R_front_hand
R_front_hand02_01 R_front_hand
R_front_hand03_01 R_front_hand
R_front_hand01_02 R_front_hand01_01
R_front_hand02_02 R_front_hand02_01
R_front_hand03_02 R_front_hand03_01
null_rope01_connect L_mid_tent01
Rope1_Seg01 null_rope01_connect
Rope1_Seg02 Rope1_Seg01
Rope1_Seg03 Rope1_Seg02
Rope1_Seg04 Rope1_Seg03
Rope1_Seg05 Rope1_Seg04
Rope1_Seg06 Rope1_Seg05
Rope1_Seg07 Rope1_Seg06
Rope1_Seg09 Rope1_Seg07
L_mid_hand01 Rope1_Seg09
L_mid_hand02 Rope1_Seg09
L_mid_hand03 Rope1_Seg09
null_rope02_connect R_mid_tent01
Rope2_Seg01 null_rope02_connect
Rope2_Seg02 Rope2_Seg01
Rope2_Seg03 Rope2_Seg02
Rope2_Seg04 Rope2_Seg03
Rope2_Seg05 Rope2_Seg04
Rope2_Seg06 Rope2_Seg05
Rope2_Seg07 Rope2_Seg06
Rope2_Seg09 Rope2_Seg07
R_mid_hand01 Rope2_Seg09
R_mid_hand02 Rope2_Seg09
R_mid_hand03 Rope2_Seg09
spine02 spine01
spine03 spine02
pelvis spine03
null_rope03_connect pelvis
null_rope04_connect pelvis
Rope3_Seg01 null_rope03_connect
Rope3_Seg02 Rope3_Seg01
Rope3_Seg03 Rope3_Seg02
Rope3_Seg04 Rope3_Seg03
Rope3_Seg05 Rope3_Seg04
Rope3_Seg06 Rope3_Seg05
Rope3_Seg07 Rope3_Seg06
Rope3_Seg08 Rope3_Seg07
Rope3_Seg09 Rope3_Seg08
R_rear_hand01 Rope3_Seg09
R_rear_hand02 Rope3_Seg09
R_rear_hand03 Rope3_Seg09
Rope4_Seg01 null_rope04_connect
Rope4_Seg02 Rope4_Seg01
Rope4_Seg03 Rope4_Seg02
Rope4_Seg04 Rope4_Seg03
Rope4_Seg05 Rope4_Seg04
Rope4_Seg06 Rope4_Seg05
Rope4_Seg07 Rope4_Seg06
Rope4_Seg08 Rope4_Seg07
Rope4_Seg09 Rope4_Seg08
L_rear_hand01 Rope4_Seg09
L_rear_hand02 Rope4_Seg09
L_rear_hand03 Rope4_Seg09
[BasePosition]
#SegmentName Tx, Ty, Tz, Rx, Ry, Rz, BoneLength
MASTER 0.000000 0.000000 0.000000 -90.000000 0.000000 0.000000 10.000000 
root 0.000000 0.000000 0.000000 0.000000 0.000000 0.000000 10.000000 
chest 0.000000 0.000000 0.000000 0.000000 0.000000 0.000000 10.000000 
L_mid_tent01 0.000000 0.000000 0.000000 0.000000 0.000000 0.000000 10.000000 
R_mid_tent01 0.000000 0.000000 0.000000 0.000000 0.000000 0.000000 10.000000 
spine01 0.000000 0.000000 0.000000 0.000000 0.000000 0.000000 10.000000 
Bip01_Neck 0.000000 0.000000 0.000000 0.000000 0.000000 0.000000 10.000000 
L_humerus 0.000000 0.000000 0.000000 0.000000 0.000000 0.000000 10.000000 
R_humerus 0.000000 0.000000 0.000000 0.000000 0.000000 0.000000 10.000000 
weapon_bone 0.000000 0.000000 0.000000 0.000000 0.000000 0.000000 10.000000 
Bip01_Head 0.000000 0.000000 0.000000 0.000000 0.000000 0.000000 10.000000 
eye_left_bone 0.000000 0.000000 0.000000 0.000000 0.000000 0.000000 10.000000 
eye_right_bone 0.000000 0.000000 0.000000 0.000000 0.000000 0.000000 10.000000 
L_forearm 0.000000 0.000000 0.000000 0.000000 0.000000 0.000000 10.000000 
L_front_hand 0.000000 0.000000 0.000000 0.000000 0.000000 0.000000 10.000000 
L_weapon_bone 0.000000 0.000000 0.000000 0.000000 0.000000 0.000000 10.000000 
L_front_hand01_01 0.000000 0.000000 0.000000 0.000000 0.000000 0.000000 10.000000 
L_front_hand02_01 0.000000 0.000000 0.000000 0.000000 0.000000 0.000000 10.000000 
L_front_hand03_01 0.000000 0.000000 0.000000 0.000000 0.000000 0.000000 10.000000 
L_front_hand01_02 0.000000 0.000000 0.000000 0.000000 0.000000 0.000000 10.000000 
L_front_hand02_02 0.000000 0.000000 0.000000 0.000000 0.000000 0.000000 10.000000 
L_front_hand03_02 0.000000 0.000000 0.000000 0.000000 0.000000 0.000000 10.000000 
R_forearm 0.000000 0.000000 0.000000 0.000000 0.000000 0.000000 10.000000 
R_front_hand 0.000000 0.000000 0.000000 0.000000 0.000000 0.000000 10.000000 
R_weapon_bone 0.000000 0.000000 0.000000 0.000000 0.000000 0.000000 10.000000 
R_front_hand01_01 0.000000 0.000000 0.000000 0.000000 0.000000 0.000000 10.000000 
R_front_hand02_01 0.000000 0.000000 0.000000 0.000000 0.000000 0.000000 10.000000 
R_front_hand03_01 0.000000 0.000000 0.000000 0.000000 0.000000 0.000000 10.000000 
R_front_hand01_02 0.000000 0.000000 0.000000 0.000000 0.000000 0.000000 10.000000 
R_front_hand02_02 0.000000 0.000000 0.000000 0.000000 0.000000 0.000000 10.000000 
R_front_hand03_02 0.000000 0.000000 0.000000 0.000000 0.000000 0.000000 10.000000 
null_rope01_connect 0.000000 0.000000 0.000000 0.000000 0.000000 0.000000 10.000000 
Rope1_Seg01 0.000000 0.000000 0.000000 0.000000 0.000000 0.000000 10.000000 
Rope1_Seg02 0.000000 0.000000 0.000000 0.000000 0.000000 0.000000 10.000000 
Rope1_Seg03 0.000000 0.000000 0.000000 0.000000 0.000000 0.000000 10.000000 
Rope1_Seg04 0.000000 0.000000 0.000000 0.000000 0.000000 0.000000 10.000000 
Rope1_Seg05 0.000000 0.000000 0.000000 0.000000 0.000000 0.000000 10.000000 
Rope1_Seg06 0.000000 0.000000 0.000000 0.000000 0.000000 0.000000 10.000000 
Rope1_Seg07 0.000000 0.000000 0.000000 0.000000 0.000000 0.000000 10.000000 
Rope1_Seg09 0.000000 0.000000 0.000000 0.000000 0.000000 0.000000 10.000000 
L_mid_hand01 0.000000 0.000000 0.000000 0.000000 0.000000 0.000000 10.000000 
L_mid_hand02 0.000000 0.000000 0.000000 0.000000 0.000000 0.000000 10.000000 
L_mid_hand03 0.000000 0.000000 0.000000 0.000000 0.000000 0.000000 10.000000 
null_rope02_connect 0.000000 0.000000 0.000000 0.000000 0.000000 0.000000 10.000000 
Rope2_Seg01 0.000000 0.000000 0.000000 0.000000 0.000000 0.000000 10.000000 
Rope2_Seg02 0.000000 0.000000 0.000000 0.000000 0.000000 0.000000 10.000000 
Rope2_Seg03 0.000000 0.000000 0.000000 0.000000 0.000000 0.000000 10.000000 
Rope2_Seg04 0.000000 0.000000 0.000000 0.000000 0.000000 0.000000 10.000000 
Rope2_Seg05 0.000000 0.000000 0.000000 0.000000 0.000000 0.000000 10.000000 
Rope2_Seg06 0.000000 0.000000 0.000000 0.000000 0.000000 0.000000 10.000000 
Rope2_Seg07 0.000000 0.000000 0.000000 0.000000 0.000000 0.000000 10.000000 
Rope2_Seg09 0.000000 0.000000 0.000000 0.000000 0.000000 0.000000 10.000000 
R_mid_hand01 0.000000 0.000000 0.000000 0.000000 0.000000 0.000000 10.000000 
R_mid_hand02 0.000000 0.000000 0.000000 0.000000 0.000000 0.000000 10.000000 
R_mid_hand03 0.000000 0.000000 0.000000 0.000000 0.000000 0.000000 10.000000 
spine02 0.000000 0.000000 0.000000 0.000000 0.000000 0.000000 10.000000 
spine03 0.000000 0.000000 0.000000 0.000000 0.000000 0.000000 10.000000 
pelvis 0.000000 0.000000 0.000000 0.000000 0.000000 0.000000 10.000000 
null_rope03_connect 0.000000 0.000000 0.000000 0.000000 0.000000 0.000000 10.000000 
null_rope04_connect 0.000000 0.000000 0.000000 0.000000 0.000000 0.000000 10.000000 
Rope3_Seg01 0.000000 0.000000 0.000000 0.000000 0.000000 0.000000 10.000000 
Rope3_Seg02 0.000000 0.000000 0.000000 0.000000 0.000000 0.000000 10.000000 
Rope3_Seg03 0.000000 0.000000 0.000000 0.000000 0.000000 0.000000 10.000000 
Rope3_Seg04 0.000000 0.000000 0.000000 0.000000 0.000000 0.000000 10.000000 
Rope3_Seg05 0.000000 0.000000 0.000000 0.000000 0.000000 0.000000 10.000000 
Rope3_Seg06 0.000000 0.000000 0.000000 0.000000 0.000000 0.000000 10.000000 
Rope3_Seg07 0.000000 0.000000 0.000000 0.000000 0.000000 0.000000 10.000000 
Rope3_Seg08 0.000000 0.000000 0.000000 0.000000 0.000000 0.000000 10.000000 
Rope3_Seg09 0.000000 0.000000 0.000000 0.000000 0.000000 0.000000 10.000000 
R_rear_hand01 0.000000 0.000000 0.000000 0.000000 0.000000 0.000000 10.000000 
R_rear_hand02 0.000000 0.000000 0.000000 0.000000 0.000000 0.000000 10.000000 
R_rear_hand03 0.000000 0.000000 0.000000 0.000000 0.000000 0.000000 10.000000 
Rope4_Seg01 0.000000 0.000000 0.000000 0.000000 0.000000 0.000000 10.000000 
Rope4_Seg02 0.000000 0.000000 0.000000 0.000000 0.000000 0.000000 10.000000 
Rope4_Seg03 0.000000 0.000000 0.000000 0.000000 0.000000 0.000000 10.000000 
Rope4_Seg04 0.000000 0.000000 0.000000 0.000000 0.000000 0.000000 10.000000 
Rope4_Seg05 0.000000 0.000000 0.000000 0.000000 0.000000 0.000000 10.000000 
Rope4_Seg06 0.000000 0.000000 0.000000 0.000000 0.000000 0.000000 10.000000 
Rope4_Seg07 0.000000 0.000000 0.000000 0.000000 0.000000 0.000000 10.000000 
Rope4_Seg08 0.000000 0.000000 0.000000 0.000000 0.000000 0.000000 10.000000 
Rope4_Seg09 0.000000 0.000000 0.000000 0.000000 0.000000 0.000000 10.000000 
L_rear_hand01 0.000000 0.000000 0.000000 0.000000 0.000000 0.000000 10.000000 
L_rear_hand02 0.000000 0.000000 0.000000 0.000000 0.000000 0.000000 10.000000 
L_rear_hand03 0.000000 0.000000 0.000000 0.000000 0.000000 0.000000 10.000000 
#Beginning of Data. Separated by tabs
#Fr	Tx	Ty	Tz	Rx	Ry	Rz	SF
[MASTER]
18 0.000000 0.000000 0.000000 0.001660 0.001660 0.001660 0.000000
19 0.000000 0.000000 0.000000 0.001660 0.001660 0.001660 0.000000
[root]
18 -34.811188 -54.869884 1502.244995 -86.093002 -32.731350 -88.462173 1503.649780
19 -34.035736 -55.146214 1502.149902 -85.756775 -35.821705 -87.695534 1503.547119
[chest]
18 -84.512650 -34.090519 0.000000 -13.765612 -29.985958 172.001175 91.129311
19 -84.512650 -34.090519 0.000000 -13.598295 -28.037712 171.188141 91.129311
[L_mid_tent01]
18 27.299160 22.179020 -249.918701 3.862628 36.229202 81.347610 252.381683
19 27.299164 22.179014 -249.918701 3.862628 36.229202 81.347610 252.381683
[R_mid_tent01]
18 23.228794 24.509907 226.238495 160.432037 -47.061241 87.899765 228.744751
19 23.228794 24.509907 226.238495 160.432037 -47.061241 87.899765 228.744751
[spine01]
18 -0.361383 -0.195265 0.000000 0.002062 0.001122 32.879829 0.410763
19 -0.361383 -0.195265 0.000000 0.002062 0.001122 32.879829 0.410763
[Bip01_Neck]
18 165.484543 71.581718 0.000119 176.643677 -1.657967 43.431911 180.302734
19 165.484543 71.581718 0.000119 176.643677 -1.657967 43.431911 180.302734
[L_humerus]
18 -13.983130 -135.272980 -120.471481 165.754822 34.641052 -77.244026 181.680161
19 -13.983130 -135.272980 -120.471481 166.562149 40.647282 -81.091637 181.680161
[R_humerus]
18 -13.983309 -135.273102 125.287651 -171.437469 -13.284015 -99.425835 184.909012
19 -13.983309 -135.273102 125.287651 -170.045883 -17.391977 -101.907921 184.909012
[weapon_bone]
18 235.964890 -300.705902 0.000000 0.000000 -89.951546 -128.212341 382.234833
19 235.964890 -300.705902 0.000000 0.000000 -89.951546 -128.212341 382.234833
[Bip01_Head]
18 213.444199 185.715378 11.776934 30.818392 3.089793 -43.895557 283.173645
19 213.444199 185.715378 11.776933 29.375271 3.110517 -43.894436 283.173645
[eye_left_bone]
18 -24.626970 125.451866 -64.772606 0.000000 -90.000000 -99.840431 143.318359
19 -24.626970 125.451866 -64.772606 0.000000 -90.000000 -99.840431 143.318359
[eye_right_bone]
18 -24.626970 125.451866 64.327362 0.000000 -89.965736 80.156380 143.117676
19 -24.626970 125.451866 64.327362 0.000000 -89.965736 80.156380 143.117676
[L_forearm]
18 322.776093 0.000000 -0.000119 0.000396 -0.002314 -109.419975 322.776093
19 322.776093 0.000000 -0.000119 0.000396 -0.002314 -109.419975 322.776093
[L_front_hand]
18 241.149185 -0.042021 -3.300071 -178.667953 -1.835447 -27.422342 241.171753
19 241.149185 -0.042021 -3.300071 -178.667953 -1.835447 -27.422350 241.171753
[L_weapon_bone]
18 156.183838 0.000000 0.000000 0.000014 0.000007 0.000001 156.183838
19 156.183838 0.000000 0.000000 0.000014 0.000007 0.000001 156.183838
[L_front_hand01_01]
18 86.095154 20.947098 -0.655860 -0.289102 -0.524108 66.611076 88.609184
19 86.095154 20.947098 -0.655860 -0.291918 -0.522544 67.227623 88.609184
[L_front_hand02_01]
18 86.935165 -11.437475 24.513514 142.580521 -55.269005 -47.395390 91.046425
19 86.935165 -11.437475 24.513514 143.299149 -55.645802 -48.269920 91.046425
[L_front_hand03_01]
18 86.637497 -14.123976 -20.424902 -142.879883 53.494282 -49.391994 90.126129
19 86.637497 -14.123976 -20.424902 -143.556351 53.862476 -50.232788 90.126129
[L_front_hand01_02]
18 71.020905 -0.000179 0.000030 0.000315 -0.002326 -105.441971 71.020905
19 71.020905 -0.000179 0.000030 0.000316 -0.002326 -105.462708 71.020905
[L_front_hand02_02]
18 71.020927 -0.000119 0.000060 0.000315 -0.002326 -105.441971 71.020927
19 71.020927 -0.000119 0.000060 0.000316 -0.002326 -105.462708 71.020927
[L_front_hand03_02]
18 71.020905 -0.000060 0.000060 0.000315 -0.002326 -105.441971 71.020905
19 71.020905 -0.000060 0.000060 0.000316 -0.002326 -105.462708 71.020905
[R_forearm]
18 322.776428 -0.000060 0.000030 0.202103 0.065158 -108.062805 322.776428
19 322.776428 -0.000060 0.000030 0.202103 0.065158 -108.062805 322.776428
[R_front_hand]
18 238.847015 -0.006795 2.210259 -2.635298 -10.645461 -26.312506 238.857239
19 238.847015 -0.006795 2.210259 -2.635298 -10.645461 -26.312506 238.857239
[R_weapon_bone]
18 155.664093 0.002503 -0.000030 0.003487 0.001180 -90.988930 155.664078
19 155.664093 0.002503 -0.000030 0.003487 0.001180 -90.988930 155.664078
[R_front_hand01_01]
18 87.624611 14.231146 22.918642 -140.217056 -53.925083 44.603291 91.683487
19 87.624611 14.231146 22.918642 -141.470367 -54.661602 46.147430 91.683487
[R_front_hand02_01]
18 89.356956 14.367283 -19.491137 140.984955 52.347897 47.247559 92.579636
19 89.356956 14.367283 -19.491137 142.182632 53.068485 48.753605 92.579636
[R_front_hand03_01]
18 87.286232 -22.307278 -0.143439 0.075044 -0.448119 -64.698715 90.091743
19 87.286232 -22.307278 -0.143439 0.083738 -0.444647 -65.861671 90.091743
[R_front_hand01_02]
18 71.020905 0.000060 0.000119 0.002323 -0.000334 106.381714 71.020905
19 71.020905 0.000060 0.000119 0.002323 -0.000334 106.381714 71.020905
[R_front_hand02_02]
18 71.020844 -0.000030 -0.000119 0.002323 -0.000334 106.381714 71.020836
19 71.020844 -0.000030 -0.000119 0.002323 -0.000334 106.381714 71.020836
[R_front_hand03_02]
18 71.020905 0.000000 0.000030 0.002323 -0.000334 106.381714 71.020905
19 71.020905 0.000000 0.000030 0.002323 -0.000334 106.381714 71.020905
[null_rope01_connect]
18 328.732483 0.000000 -0.000238 -132.157181 -58.508083 174.765839 328.732483
19 328.732483 0.000000 -0.000238 -129.637253 -59.476025 175.419403 328.732483
[Rope1_Seg01]
18 -0.000027 0.000017 0.000066 -34.126945 31.765356 -61.243492 0.000073
19 -0.000027 0.000015 0.000061 -36.189533 29.806894 -70.212196 0.000068
[Rope1_Seg02]
18 139.999863 -0.000179 0.000000 -1.064452 1.889599 -0.159348 139.999863
19 139.999863 -0.000179 0.000000 -3.694828 3.231502 1.773638 139.999863
[Rope1_Seg03]
18 139.999924 0.000060 -0.000060 -1.948481 3.154377 -0.205392 139.999924
19 139.999924 0.000060 -0.000060 -9.334828 8.185548 3.835605 139.999924
[Rope1_Seg04]
18 139.999924 -0.000060 -0.000119 -10.162157 12.419482 -0.108045 139.999924
19 139.999924 -0.000060 -0.000119 -10.872114 6.403299 9.700380 139.999924
[Rope1_Seg05]
18 139.999832 0.000119 -0.000060 10.893193 -11.705793 -3.006101 139.999832
19 139.999832 0.000119 -0.000060 13.809787 -20.721912 -4.074252 139.999832
[Rope1_Seg06]
18 139.999954 0.000119 -0.000060 5.610621 -9.020571 -0.386627 139.999954
19 139.999954 0.000119 -0.000060 2.586516 -8.309536 1.420833 139.999954
[Rope1_Seg07]
18 139.999985 0.000060 0.000000 1.985039 -3.984052 0.175137 139.999985
19 139.999985 0.000060 0.000000 0.685147 -2.712460 0.593939 139.999985
[Rope1_Seg09]
18 121.602913 0.000119 -0.000089 -89.793175 -1.359789 0.847147 121.602913
19 121.602913 0.000119 -0.000089 -89.793175 -1.359789 0.847147 121.602913
[L_mid_hand01]
18 103.859421 1.038730 8.195221 129.242493 -66.931091 -37.458961 104.187431
19 103.859421 1.038730 8.195221 130.544373 -67.584534 -38.866943 104.187431
[L_mid_hand02]
18 105.572853 -4.139662 -10.864139 -168.136536 43.236561 -72.353096 106.211075
19 105.572853 -4.139662 -10.864139 -168.923172 43.409309 -73.498886 106.211075
[L_mid_hand03]
18 104.641464 17.579376 -3.913581 -6.285013 17.719217 74.000862 106.179977
19 104.641464 17.579376 -3.913581 -6.012627 17.808174 74.893669 106.179977
[null_rope02_connect]
18 328.732849 0.000179 -0.000119 -120.121857 35.129910 15.988703 328.732849
19 328.732849 0.000179 -0.000119 -116.959206 34.114433 16.137146 328.732849
[Rope2_Seg01]
18 -0.000053 0.000100 0.000000 140.472061 56.856167 -91.019920 0.000113
19 -0.000061 0.000099 0.000000 165.907806 56.164410 -68.646957 0.000116
[Rope2_Seg02]
18 139.999741 -0.000060 -0.000119 -0.753562 -0.321700 1.220470 139.999756
19 139.999741 -0.000060 -0.000119 -1.396946 -1.894789 2.300411 139.999756
[Rope2_Seg03]
18 140.000107 0.000030 0.000000 -1.150689 -0.562206 1.975911 140.000107
19 140.000107 0.000030 0.000000 -1.759378 -3.437624 3.583308 140.000107
[Rope2_Seg04]
18 139.999802 0.000000 -0.000060 -0.711100 -3.015942 2.449781 139.999802
19 139.999802 0.000000 -0.000060 -1.880286 -10.424613 6.932111 139.999802
[Rope2_Seg05]
18 139.999985 -0.000060 0.000119 -9.727994 3.880385 19.027895 139.999985
19 139.999985 -0.000060 0.000119 -9.020934 2.527845 22.984921 139.999985
[Rope2_Seg06]
18 139.999893 -0.000030 -0.000119 -4.168864 0.979462 9.916393 139.999893
19 139.999893 -0.000030 -0.000119 -3.483501 0.127004 12.909655 139.999893
[Rope2_Seg07]
18 139.999893 0.000060 -0.000060 -1.834331 -0.095441 5.064920 139.999893
19 139.999893 0.000060 -0.000060 -1.226917 -0.734216 6.209980 139.999893
[Rope2_Seg09]
18 121.338966 0.000089 -0.000060 33.793236 -1.359788 -0.847141 121.338966
19 121.338966 0.000089 -0.000060 33.793236 -1.359788 -0.847141 121.338966
[R_mid_hand01]
18 104.680779 11.144459 -10.335981 -24.361835 42.075401 58.684284 105.778534
19 104.680779 11.144459 -10.335981 -20.399694 43.830383 64.493835 105.778534
[R_mid_hand02]
18 104.070427 2.443552 8.231699 59.930573 -60.321301 27.236141 104.424065
19 104.070427 2.443552 8.231699 55.242626 -64.206024 32.532070 104.424065
[R_mid_hand03]
18 106.028137 -11.221827 -5.996406 -174.631485 14.897616 -67.203407 106.788818
19 106.028137 -11.221827 -5.996406 -175.861618 15.275425 -71.940262 106.788818
[spine02]
18 129.756927 0.001550 0.000119 0.360061 -4.044797 -12.915058 129.756927
19 129.756927 0.001550 0.000119 0.360061 -4.044797 -12.915058 129.756927
[spine03]
18 78.614090 0.081568 -4.898993 1.896495 3.831288 16.473045 78.766632
19 78.614090 0.081573 -4.898993 1.896495 3.831288 16.473045 78.766632
[pelvis]
18 169.435242 0.051022 0.000000 -0.060465 -0.180225 14.087930 169.435257
19 169.435242 0.051022 0.000000 -0.060465 -0.180225 14.087930 169.435257
[null_rope03_connect]
18 -1.257226 -2.466202 137.391083 41.771156 -84.117035 30.371212 137.418976
19 -1.257226 -2.466202 137.391083 48.446053 -83.174850 26.755167 137.418976
[null_rope04_connect]
18 -1.259640 -2.480268 -137.844437 41.771156 -84.117035 30.371212 137.872513
19 -1.259640 -2.480268 -137.844437 48.446053 -83.174850 26.755167 137.872513
[Rope3_Seg01]
18 0.000010 0.000017 -0.000066 -130.147964 -2.420338 -86.093849 0.000069
19 0.000010 0.000015 -0.000061 -129.897491 -13.431987 -82.809532 0.000064
[Rope3_Seg02]
18 139.999924 -0.000119 0.000060 -4.565935 -10.752536 15.012416 139.999924
19 139.999924 -0.000119 0.000060 -2.292381 -13.989119 12.802104 139.999924
[Rope3_Seg03]
18 139.999924 -0.000119 0.000119 -2.041893 -3.424794 7.153751 139.999924
19 139.999924 -0.000119 0.000119 -0.544926 -4.031763 4.411498 139.999924
[Rope3_Seg04]
18 139.999924 0.000119 0.000000 -1.291250 -3.314280 2.097524 139.999924
19 139.999924 0.000119 0.000000 -0.849307 -6.044762 3.821173 139.999924
[Rope3_Seg05]
18 139.999924 -0.000238 0.000060 -0.790779 -4.708989 -0.832078 139.999924
19 139.999924 -0.000238 0.000060 -0.808349 -7.820420 3.939288 139.999924
[Rope3_Seg06]
18 139.999893 -0.000119 -0.000060 -0.211919 -4.800010 -1.400251 139.999893
19 139.999893 -0.000119 -0.000060 -0.051518 -5.010020 2.573408 139.999893
[Rope3_Seg07]
18 139.999771 0.000060 -0.000119 0.116435 -3.297200 -0.377719 139.999771
19 139.999771 0.000060 -0.000119 0.244672 -3.410721 1.810335 139.999771
[Rope3_Seg08]
18 139.999985 -0.000060 0.000000 0.313840 -2.351937 -0.266961 139.999985
19 139.999985 -0.000060 0.000000 0.393742 -2.238195 1.200976 139.999985
[Rope3_Seg09]
18 90.185997 -0.000179 -0.000060 89.793228 -1.359877 -0.847183 90.185997
19 90.185997 -0.000179 -0.000060 89.793228 -1.359877 -0.847183 90.185997
[R_rear_hand01]
18 103.366196 -6.073594 -10.757982 -174.043228 23.976637 -65.002998 104.101845
19 103.366196 -6.073594 -10.757982 -175.914093 24.346796 -69.567566 104.101845
[R_rear_hand02]
18 100.509819 12.039542 -7.992327 -18.533085 34.659092 62.503902 101.543350
19 100.509819 12.039542 -7.992327 -15.704349 35.886925 67.395027 101.543350
[R_rear_hand03]
18 101.539970 5.215704 5.435467 76.952385 -63.971771 15.629117 101.819031
19 101.539970 5.215704 5.435467 74.640678 -68.020927 18.152246 101.819031
[Rope4_Seg01]
18 -0.000003 0.000033 -0.000196 48.267937 -3.110842 -132.539001 0.000199
19 -0.000004 0.000031 -0.000198 55.586666 -14.412266 -137.330032 0.000201
[Rope4_Seg02]
18 139.999985 0.000060 0.000119 -1.470511 26.331617 3.590079 139.999985
19 139.999985 0.000060 0.000119 -5.841496 26.994781 -1.702039 139.999985
[Rope4_Seg03]
18 139.999924 0.000000 -0.000238 2.148837 25.198858 5.222517 139.999924
19 139.999924 0.000000 -0.000238 0.948750 30.724930 1.934521 139.999924
[Rope4_Seg04]
18 139.999985 0.000000 0.000119 2.685996 16.165209 3.661436 139.999985
19 139.999985 0.000000 0.000119 3.574867 18.847822 1.738813 139.999985
[Rope4_Seg05]
18 139.999802 -0.000060 -0.000119 2.224826 4.496440 -0.866428 139.999802
19 139.999802 -0.000060 -0.000119 3.025030 6.274005 -1.512258 139.999802
[Rope4_Seg06]
18 139.999924 0.000000 0.000060 2.448861 -0.877231 -3.569575 139.999924
19 139.999924 0.000000 0.000060 3.388809 1.966370 -3.657200 139.999924
[Rope4_Seg07]
18 139.999802 0.000000 0.000000 2.399439 -1.105776 -3.841287 139.999802
19 139.999802 0.000000 0.000000 3.825746 2.135454 -4.134864 139.999802
[Rope4_Seg08]
18 139.999924 0.000000 0.000119 0.158616 0.563793 -2.282650 139.999924
19 139.999924 0.000000 0.000119 1.540876 2.544257 -2.888324 139.999924
[Rope4_Seg09]
18 90.185791 0.000060 0.000060 -135.617828 2.228885 0.850567 90.185791
19 90.185791 0.000060 0.000060 -135.617828 2.228885 0.850567 90.185791
[L_rear_hand01]
18 101.696655 -8.392275 -7.654577 -13.354956 -36.717747 108.641342 102.329041
19 101.696655 -8.392275 -7.654577 -12.874829 -36.868488 107.832764 102.329041
[L_rear_hand02]
18 102.726799 -1.568258 5.773216 72.111618 71.190071 159.144638 102.900848
19 102.726799 -1.568258 5.773216 71.484581 71.816628 158.486160 102.900848
[L_rear_hand03]
18 104.552910 9.721220 -10.420293 -177.406540 -24.537506 -106.814919 105.519653
19 104.552910 9.721220 -10.420293 -177.714203 -24.565960 -106.089035 105.519653
